<?xml version="1.0" encoding="utf-8"?>
<!-- Generator: Adobe Illustrator 21.1.0, SVG Export Plug-In . SVG Version: 6.00 Build 0)  -->
<svg version="1.1" id="Calque_1" xmlns="http://www.w3.org/2000/svg" xmlns:xlink="http://www.w3.org/1999/xlink" x="0px" y="0px"
	 viewBox="0 0 50 50" style="enable-background:new 0 0 50 50;" xml:space="preserve">
<style type="text/css">
	.st0{fill:#FFFFFF;}
</style>
<path class="st0" d="M29,8.5c-5.2,0-9.6,3.1-11.7,7.5c-1.1-0.8-2.4-1.3-3.9-1.3c-3.7,0-6.7,2.9-6.9,6.6c-3.7,1.3-6.4,4.8-6.4,9
	C0,35.7,4.3,40,9.7,40h31.4c4.9,0,8.9-4,8.9-8.9c0-4.6-3.5-8.2-7.9-8.7c0-0.2,0-0.5,0-0.7C42.1,14.4,36.2,8.5,29,8.5z M29,10.5
	c6.2,0,11.2,5,11.2,11.1c0,0.5,0,0.9-0.1,1.4l-0.1,1.1H41c0.1,0,0.1,0,0.1,0c3.8,0,6.9,3.1,6.9,6.9S44.9,38,41.1,38H9.7
	C5.4,38,2,34.6,2,30.3c0-3.5,2.4-6.5,5.6-7.4l0.8-0.2l0-0.8c0-0.1,0-0.2,0-0.2c0-2.8,2.2-5,5-5c1.4,0,2.6,0.6,3.5,1.5l1.1,1.1
	l0.5-1.5C20.1,13.6,24.2,10.5,29,10.5z M19,22c-1.1,0-2,0.9-2,2s0.9,2,2,2s2-0.9,2-2S20.1,22,19,22z M31,22c-1.1,0-2,0.9-2,2
	s0.9,2,2,2c1.1,0,2-0.9,2-2S32.1,22,31,22z M25,29c-6,0-9.8,4.3-9.8,4.3c-0.4,0.4-0.3,1,0.1,1.4s1,0.3,1.4-0.1c0,0,0,0,0,0
	c0,0,3.2-3.7,8.2-3.7s8.2,3.7,8.2,3.7c0.3,0.4,1,0.5,1.4,0.1s0.5-1,0.1-1.4c0,0,0,0,0,0C34.8,33.3,31,29,25,29z"/>
</svg>
